# xmcd
#
# Track frame offsets: 
#        151
#        12836
#        28296
#        46056
#        65066
#        93545
#        108063
#        131678
#        148297
#        165079
#        196325
#        215328
#        229918
#        242456
#        258301
#        273356
#        286133
#        301659
#        312048
#
# Disc length: 4422 seconds
#
# Revision: 0
# Processed by: cddbd v1.5.2PL0 Copyright (c) Steve Scherf et al.
# Submitted via: ExactAudioCopy v0.99pb5
#
DISCID=01114413
DTITLE=Emmylou Harris - Guardian Angel (Bootleg)
DYEAR=1994
DGENRE=Country
TTITLE0=Feeling Single, Seeing Double
TTITLE1=Amarillo
TTITLE2=Together Again
TTITLE3=Return of the Greivous Angel
TTITLE4=Blue Bird Wine
TTITLE5=Wheels
TTITLE6=Control
TTITLE7=Viva Las Vegas
TTITLE8=Boulder to Birmingham
TTITLE9=Shop Around
TTITLE10=Hickory Wind
TTITLE11=Cowgirl
TTITLE12=Win Your Love
TTITLE13=Heartbreak Hill
TTITLE14=Get Up John
TTITLE15=Scotland
TTITLE16=Hard Times
TTITLE17=Guitar Town
TTITLE18=Too Far Gone
EXTD=
EXTT0=
EXTT1=
EXTT2=
EXTT3=
EXTT4=
EXTT5=
EXTT6=
EXTT7=
EXTT8=
EXTT9=
EXTT10=
EXTT11=
EXTT12=
EXTT13=
EXTT14=
EXTT15=
EXTT16=
EXTT17=
EXTT18=
PLAYORDER=
